<svg width="100" height="100" viewBox="0 0 135 136" fill="none" xmlns="http://www.w3.org/2000/svg">
<path d="M4.34554 50.7477C5.04916 51.4511 5.91653 51.9684 6.86961 52.2533C7.79987 52.5922 8.79919 52.6969 9.77945 52.5582C10.6141 52.43 11.3944 52.0645 12.0273 51.5052C12.6663 50.9256 13.1383 50.1852 13.3941 49.3612C13.5949 48.7892 13.6885 48.1851 13.6703 47.5792C13.6531 47.0473 13.5351 46.5234 13.3227 46.0355C13.1259 45.5729 12.8467 45.1499 12.4988 44.7871C12.1649 44.4413 11.7712 44.1588 11.3368 43.9533L10.6367 46.045C10.8671 46.1655 11.0736 46.327 11.2463 46.5215C11.4086 46.7121 11.5331 46.9321 11.613 47.1694C11.6952 47.4067 11.7339 47.6569 11.7273 47.908C11.7158 48.1819 11.6661 48.453 11.5796 48.7132C11.4397 49.1849 11.1571 49.6017 10.7708 49.9062C10.3845 50.2108 9.91342 50.3882 9.42227 50.4141C8.78985 50.4536 8.15607 50.3628 7.56016 50.1473C6.96323 49.9679 6.41017 49.6661 5.93618 49.2611C5.5519 48.9393 5.27315 48.5093 5.1361 48.0271C5.01522 47.5549 5.03676 47.0576 5.19801 46.5977C5.28424 46.3311 5.41289 46.0801 5.579 45.8544C5.73025 45.648 5.91738 45.4705 6.13144 45.3303C6.34242 45.197 6.57673 45.1048 6.82199 45.0587C7.08795 45.0088 7.36088 45.0088 7.62684 45.0587L8.31739 42.9671C7.77252 42.849 7.21031 42.8344 6.66007 42.9242C6.1521 43.0098 5.66636 43.1961 5.23135 43.4721C4.79581 43.7557 4.41505 44.1156 4.10742 44.5346C3.7819 44.9931 3.52965 45.4994 3.35972 46.0355C3.0807 46.8423 3.01991 47.7085 3.18351 48.5464C3.3522 49.3773 3.7574 50.1418 4.3503 50.7477" fill="#FFFDEB"/>
<path d="M10.9785 40.7088C11.8256 41.2273 12.7875 41.5284 13.7788 41.5855C14.6334 41.6215 15.4801 41.4097 16.2172 40.9756C16.9498 40.5208 17.5576 39.8907 17.9858 39.142C18.414 38.3934 18.6491 37.5498 18.6698 36.6875C18.6644 35.8427 18.42 35.0168 17.965 34.3052C17.4172 33.4753 16.6707 32.7955 15.7933 32.3279C14.947 31.8085 13.9845 31.5088 12.993 31.4559C12.1443 31.4209 11.3033 31.6292 10.569 32.0563C9.83872 32.5132 9.23296 33.144 8.80581 33.8923C8.37866 34.6405 8.14342 35.483 8.12109 36.3444C8.12611 37.1899 8.37229 38.0164 8.83069 38.7267C9.3717 39.555 10.1097 40.2361 10.9785 40.7088ZM10.469 34.8531C10.7021 34.4243 11.0589 34.0756 11.4929 33.8525C11.9357 33.6354 12.4332 33.5558 12.9216 33.6238C13.544 33.7146 14.1418 33.9301 14.6789 34.2575C15.2307 34.556 15.7167 34.9627 16.1077 35.4534C16.4146 35.844 16.6001 36.3162 16.641 36.8113C16.6501 37.2956 16.5272 37.7732 16.2856 38.1928C16.0439 38.6125 15.6927 38.9585 15.2695 39.1936C14.8254 39.4066 14.3286 39.4845 13.8407 39.4176C13.2174 39.3305 12.6189 39.1147 12.0834 38.7839C11.5297 38.4883 11.0433 38.0811 10.6547 37.588C10.3439 37.2059 10.1592 36.7368 10.1259 36.2453C10.0927 35.7538 10.2125 35.2641 10.469 34.8436" fill="#FFFDEB"/>
<path d="M20.2574 25.4712L17.2617 29.0889L18.571 30.174L21.5667 26.5563L20.2574 25.4712Z" fill="#FFFDEB"/>
<path d="M23.1814 23.4083C23.8041 24.1789 24.6096 24.7817 25.5245 25.1616C26.3123 25.4809 27.1757 25.5653 28.0104 25.4046C28.8498 25.2217 29.6304 24.8322 30.2815 24.2715C30.9326 23.7108 31.4337 22.9965 31.7394 22.1933C32.0226 21.3928 32.0689 20.5276 31.8728 19.7014C31.6382 18.7391 31.1685 17.8502 30.5059 17.1142C29.8722 16.3376 29.0533 15.733 28.1247 15.3561C27.3358 15.0408 26.4732 14.9581 25.6388 15.1179C24.8039 15.3064 24.0286 15.6988 23.3821 16.26C22.7356 16.8211 22.238 17.5336 21.9336 18.334C21.6518 19.1332 21.6072 19.997 21.805 20.8211C22.0459 21.7859 22.524 22.6752 23.1956 23.4083M23.8386 18.9057C23.9893 18.4422 24.2644 18.029 24.634 17.7114C25.0036 17.3938 25.4533 17.1839 25.934 17.1047C26.4261 17.0519 26.9229 17.1446 27.3628 17.3715C28.4567 17.9948 29.2989 18.9806 29.744 20.1588C29.8524 20.5074 29.8842 20.8752 29.8374 21.2373C29.7905 21.5993 29.6661 21.9469 29.4725 22.2564C29.279 22.5658 29.0209 22.8298 28.716 23.0303C28.411 23.2307 28.0664 23.3629 27.7056 23.4178C27.2136 23.4704 26.7169 23.3776 26.2769 23.151C25.7267 22.8563 25.241 22.4546 24.8482 21.9694C24.4249 21.5045 24.1008 20.9581 23.8957 20.3637C23.736 19.8931 23.7194 19.3857 23.8481 18.9057" fill="#FFFDEB"/>
<path d="M37.7212 18.6438L36.0544 15.7517L37.6498 14.8369C38.2681 14.5074 38.7962 14.0314 39.188 13.4504C39.5185 12.9468 39.6925 12.3566 39.6881 11.7542C39.6748 11.1219 39.4958 10.5041 39.169 9.96272C38.8658 9.40861 38.4245 8.94244 37.8879 8.60958C37.3747 8.29929 36.7822 8.14532 36.1829 8.16647C35.492 8.20704 34.8216 8.41644 34.2304 8.77634L30.7109 10.8013L35.8353 19.7301L37.7212 18.6438ZM34.7495 10.544C35.0494 10.3509 35.3902 10.2301 35.7448 10.1914C36.0383 10.1726 36.3302 10.2477 36.5782 10.4058C36.8392 10.5759 37.0537 10.8085 37.2021 11.0824C37.3609 11.3489 37.4539 11.6494 37.4736 11.9591C37.4852 12.254 37.4054 12.5452 37.245 12.7929C37.0434 13.0906 36.7719 13.3343 36.4544 13.5028L35.1733 14.2366L33.4636 11.2587L34.7495 10.544Z" fill="#FFFDEB"/>
<path d="M50.9665 12.631L50.3474 10.9443L45.8612 12.6024L45.0088 10.2963L49.1425 8.77166L48.5187 7.08499L44.3897 8.60966L43.5372 6.30836L48.0043 4.65981L47.3805 2.97314L40.875 5.37926L44.442 15.0419L50.9665 12.631Z" fill="#FFFDEB"/>
<path d="M55.507 11.554L54.845 7.96148L56.4071 7.67561L58.9883 10.9108L61.3695 10.4724L58.5121 6.93233L58.6026 6.87516C59.0802 6.54426 59.4457 6.07556 59.6503 5.53154C59.8574 4.94917 59.8986 4.32068 59.7694 3.71623C59.67 3.10367 59.4104 2.52832 59.0169 2.04862C58.6355 1.60366 58.1296 1.28334 57.5644 1.12906C56.8984 0.951229 56.1996 0.934895 55.5261 1.08141L51.5352 1.81992L53.3639 11.9494L55.507 11.554ZM55.4022 2.90625C55.7526 2.83476 56.1138 2.83476 56.4642 2.90625C56.7407 2.96919 56.9895 3.11955 57.1738 3.33506C57.3619 3.57084 57.485 3.85171 57.531 4.14981C57.5965 4.43923 57.58 4.74117 57.4834 5.02173C57.3876 5.2794 57.2081 5.49748 56.9738 5.64113C56.6709 5.82191 56.3363 5.94319 55.988 5.99847L54.5307 6.26529L53.964 3.19689L55.4022 2.90625Z" fill="#FFFDEB"/>
<path d="M66.0951 7.94734L69.8098 7.97593L70.5527 10.3296H72.8863L69.4145 0H66.6094L62.9805 10.2725H65.314L66.0951 7.94734ZM68.0381 2.3823L69.2716 6.28926H66.6618L67.9572 2.3823H68.0381Z" fill="#FFFDEB"/>
<path d="M76.2932 10.9726L78.4125 11.3395L79.865 2.96335L82.9701 3.50175L83.2796 1.73408L74.9502 0.285645L74.6406 2.05331L77.7457 2.59171L76.2932 10.9726Z" fill="#FFFDEB"/>
<path d="M86.5035 2.71876L83.457 12.5586L85.536 13.2028L88.5824 3.363L86.5035 2.71876Z" fill="#FFFDEB"/>
<path d="M100.834 8.57617L98.6533 7.54702L93.0575 13.5599L92.9717 13.5171L94.0623 5.37913L91.8716 4.34521L90.6953 15.1799L93.2337 16.3758L100.834 8.57617Z" fill="#FFFDEB"/>
<path d="M103.688 23.0462L104.736 21.5882L100.85 18.8009L102.283 16.8046L105.865 19.3727L106.908 17.9099L103.331 15.3418L104.76 13.3502L108.627 16.1232L109.674 14.6653L104.036 10.6201L98.0352 18.9915L103.688 23.0462Z" fill="#FFFDEB"/>
<path d="M111.173 24.2992C111.356 24.5826 111.516 24.8806 111.65 25.1902C111.747 25.4122 111.792 25.6532 111.783 25.8953C111.766 26.1073 111.669 26.3049 111.512 26.448C111.345 26.6186 111.125 26.7263 110.888 26.753C110.625 26.7767 110.36 26.7307 110.121 26.6195C109.823 26.479 109.554 26.2852 109.326 26.0478C109.08 25.8068 108.882 25.5225 108.74 25.2092C108.607 24.9344 108.561 24.6256 108.609 24.3241C108.657 24.0226 108.795 23.7429 109.007 23.5226L107.525 22.0265C107.048 22.4858 106.717 23.0759 106.573 23.7227C106.464 24.3368 106.536 24.9696 106.782 25.5428C107.08 26.2236 107.509 26.8389 108.045 27.3533C108.547 27.8791 109.149 28.2988 109.816 28.5873C110.358 28.8235 110.957 28.898 111.54 28.8017C112.111 28.6894 112.635 28.4051 113.04 27.987C113.318 27.7175 113.537 27.393 113.683 27.0341C113.811 26.6951 113.866 26.3332 113.845 25.9716C113.82 25.5848 113.737 25.204 113.597 24.8424C113.44 24.4376 113.242 24.0497 113.007 23.6846L112.531 22.8698C112.413 22.6843 112.306 22.4918 112.212 22.2933C112.129 22.1166 112.067 21.9312 112.026 21.7406C111.988 21.576 111.988 21.4049 112.026 21.2403C112.067 21.0753 112.159 20.9272 112.288 20.8163C112.437 20.6626 112.633 20.5636 112.845 20.5352C113.079 20.5063 113.316 20.5426 113.531 20.64C113.807 20.7726 114.057 20.9533 114.269 21.1736C114.595 21.4693 114.817 21.8618 114.902 22.2933C114.931 22.4775 114.919 22.6658 114.866 22.8446C114.814 23.0234 114.722 23.1882 114.598 23.3272L116.055 24.7757C116.466 24.3707 116.745 23.8508 116.855 23.2843C116.959 22.7082 116.902 22.1143 116.688 21.5691C116.438 20.9267 116.051 20.3464 115.555 19.8681C115.072 19.3756 114.491 18.9893 113.85 18.7341C113.295 18.507 112.691 18.4314 112.097 18.515C111.519 18.6103 110.988 18.8913 110.583 19.3154C110.332 19.5433 110.134 19.8236 110.003 20.1365C109.872 20.4493 109.812 20.7871 109.826 21.126C109.896 21.8954 110.153 22.6362 110.573 23.2843L111.173 24.2992Z" fill="#FFFDEB"/>
<path d="M116.03 36.4826C116.119 37.2493 116.367 37.9891 116.759 38.6545C117.15 39.3198 117.675 39.8962 118.302 40.3466C118.865 40.7387 119.532 40.9559 120.218 40.9712C120.904 40.9864 121.579 40.799 122.16 40.4324L127.927 37.04L126.822 35.1628L121.217 38.4599C120.907 38.6509 120.552 38.7562 120.188 38.7648C119.84 38.7737 119.496 38.6827 119.197 38.5027C118.869 38.3027 118.598 38.0202 118.412 37.6832C118.211 37.3568 118.096 36.9846 118.078 36.6017C118.067 36.2525 118.154 35.9073 118.331 35.6059C118.512 35.2922 118.773 35.0324 119.088 34.8531L124.693 31.556L123.588 29.6787L117.826 33.0711C117.223 33.3993 116.731 33.8979 116.409 34.5047C116.088 35.1114 115.953 35.7994 116.021 36.4826" fill="#FFFDEB"/>
<path d="M120.876 46.7549L123.638 45.7782L125.224 46.3499L122.172 50.4237L123.043 52.8774L127.115 47.3362L132.735 49.404L131.863 46.9455L126.348 44.9634L126.305 44.8348L130.582 43.3197L129.858 41.2661L120.152 44.6966L120.876 46.7549Z" fill="#FFFDEB"/>
<path d="M2.36023 69.2105C3.22499 69.6519 4.18025 69.8868 5.151 69.8967C6.12762 69.9636 7.10632 69.8004 8.00845 69.4202C8.77563 69.0923 9.43558 68.5559 9.91341 67.8717C10.3531 67.1722 10.5958 66.3669 10.6159 65.5409C10.636 64.7148 10.4328 63.8987 10.0277 63.1786C9.60815 62.4627 8.9937 61.881 8.25609 61.5014C7.39191 61.0579 6.43652 60.8214 5.46532 60.8106C4.4967 60.7489 3.52694 60.912 2.63169 61.287C1.86289 61.6122 1.20225 62.1492 0.726723 62.8355C0.282214 63.5297 0.0322356 64.3306 0.00291393 65.1545C-0.0264077 65.9784 0.166004 66.7951 0.560039 67.5191C0.980829 68.234 1.59496 68.8154 2.33165 69.1963M1.72683 63.5359C2.08274 63.0225 2.57868 62.6223 3.15555 62.3829C3.87572 62.0918 4.65208 61.9664 5.42722 62.016C6.20363 62.0213 6.9688 62.2021 7.66555 62.5449C8.22602 62.8236 8.69527 63.2567 9.01808 63.7932C9.30723 64.3147 9.44894 64.9052 9.42796 65.5012C9.40698 66.0972 9.22412 66.6762 8.89901 67.1761C8.54251 67.6889 8.04675 68.089 7.47029 68.3291C6.75153 68.619 5.97663 68.7427 5.20339 68.6912C4.42556 68.6896 3.65838 68.5103 2.96029 68.1671C2.40112 67.8883 1.93343 67.4551 1.61253 66.9188C1.3167 66.3988 1.17312 65.8061 1.1982 65.2083C1.21319 64.6114 1.39824 64.0312 1.73159 63.5359" fill="#FFFDEB"/>
<path d="M12.2794 82.9418L3.64035 82.3319L3.62607 82.2319L11.4793 78.5679L11.2269 77.1814L2.5831 76.5334L2.56405 76.4334L10.4268 72.8123L10.1982 71.564L0.578125 76.1856L0.811483 77.453L9.28857 78.2106L9.30286 78.2916L1.64014 82.0032L1.8735 83.2706L12.5032 84.1901L12.2794 82.9418Z" fill="#FFFDEB"/>
<path d="M16.1058 92.5999L8.65266 95.7779L8.6098 95.6873L13.858 87.3255L13.3865 86.2153L3.91406 90.2557L4.40459 91.3992L11.8387 88.2308L11.8768 88.3213L6.64292 96.6546L7.1144 97.7647L16.5868 93.7291L16.1058 92.5999Z" fill="#FFFDEB"/>
<path d="M16.6412 104.497L17.5651 103.887L15.0076 100.004L17.9127 98.0933L20.6463 102.243L21.5702 101.633L18.1508 96.4399L9.55469 102.11L13.017 107.365L13.9409 106.755L11.1644 102.539L14.0837 100.614L16.6412 104.497Z" fill="#FFFDEB"/>
<path d="M25.4166 106.155L23.1307 103.749L15.668 110.848L17.8587 113.15C18.4761 113.843 19.2642 114.362 20.1446 114.655C20.9382 114.905 21.7894 114.905 22.583 114.655C23.4813 114.349 24.2963 113.838 24.9642 113.164C25.6684 112.529 26.2161 111.74 26.5644 110.858C26.8544 110.097 26.9075 109.267 26.7168 108.475C26.4863 107.611 26.0311 106.824 25.3976 106.193M25.3976 110.534C24.7694 111.887 23.6485 112.949 22.2639 113.502C21.6605 113.72 21.0039 113.741 20.3875 113.564C19.6936 113.318 19.0774 112.892 18.6016 112.33L17.3253 110.986L23.183 105.417L24.5546 106.846C25.0591 107.338 25.4183 107.959 25.5928 108.642C25.7299 109.258 25.6716 109.901 25.4261 110.481" fill="#FFFDEB"/>
<path d="M37.5361 116.19L34.4834 114.284L29.0352 123.027L32.1926 124.994C32.7532 125.375 33.3906 125.627 34.0595 125.733C34.5602 125.804 35.0708 125.72 35.5216 125.49C35.9376 125.247 36.2899 124.909 36.5492 124.503C36.8084 124.097 36.9671 123.635 37.0122 123.155C37.0341 122.757 36.9589 122.36 36.7931 121.998C36.65 121.687 36.4324 121.417 36.1597 121.211L36.2121 121.126C36.5019 121.215 36.8045 121.255 37.1074 121.245C37.4179 121.238 37.7214 121.151 37.9885 120.992C38.3123 120.792 38.5808 120.513 38.7695 120.182C39.0279 119.777 39.1787 119.313 39.2077 118.834C39.2277 118.344 39.1017 117.86 38.8457 117.443C38.5163 116.926 38.067 116.496 37.5361 116.19ZM35.5501 123.88C35.4372 124.066 35.285 124.226 35.104 124.348C34.9231 124.47 34.7178 124.55 34.5024 124.585C33.8839 124.633 33.2696 124.449 32.7784 124.07L30.6782 122.76L32.5832 119.725L34.731 121.064C35.0793 121.27 35.3706 121.56 35.5787 121.907C35.7567 122.214 35.8489 122.563 35.8454 122.917C35.8405 123.255 35.7415 123.585 35.5597 123.87M37.7694 119.582C37.5982 119.869 37.3443 120.099 37.0408 120.239C36.7427 120.375 36.4133 120.426 36.0883 120.387C35.7389 120.345 35.4035 120.225 35.1072 120.035L33.1451 118.81L34.9548 115.908L36.9503 117.152C37.1912 117.275 37.4054 117.444 37.5804 117.65C37.7554 117.856 37.8876 118.095 37.9694 118.353C38.0207 118.561 38.0286 118.778 37.9925 118.989C37.9565 119.201 37.8773 119.402 37.7599 119.582" fill="#FFFDEB"/>
<path d="M43.935 124.837L43.8255 124.79L43.0159 119.258L41.6967 118.715L42.8302 125.728L41.2109 129.654L42.3634 130.131L43.9827 126.205L49.7261 122.026L48.4069 121.483L43.935 124.837Z" fill="#FFFDEB"/>
<path d="M62.8329 125.047C62.18 124.542 61.4034 124.223 60.5848 124.123C59.7661 124.022 58.9354 124.144 58.18 124.475C57.4325 124.834 56.8019 125.397 56.3607 126.1C55.836 126.92 55.5099 127.852 55.4083 128.82C55.2707 129.779 55.3538 130.757 55.6511 131.679C55.9139 132.466 56.3925 133.162 57.0322 133.69C57.6842 134.194 58.4599 134.513 59.2779 134.614C60.0958 134.714 60.9257 134.593 61.6804 134.261C62.4301 133.904 63.0628 133.34 63.5043 132.637C63.9984 131.803 64.3145 130.876 64.4325 129.914C64.5505 128.952 64.468 127.976 64.1901 127.048C63.929 126.26 63.4501 125.563 62.809 125.037M63.2329 129.768C63.1612 130.542 62.9171 131.289 62.5185 131.955C62.1922 132.49 61.7195 132.92 61.1565 133.194C60.6156 133.433 60.0201 133.521 59.4332 133.449C58.8463 133.377 58.2898 133.147 57.8228 132.784C57.3429 132.383 56.9876 131.852 56.7989 131.255C56.387 129.746 56.5836 128.136 57.3466 126.771C57.6715 126.236 58.1445 125.805 58.7086 125.533C59.2494 125.281 59.8511 125.19 60.4421 125.271C61.0362 125.336 61.5994 125.569 62.0661 125.942C62.546 126.344 62.9013 126.875 63.09 127.472C63.3178 128.215 63.3748 129 63.2567 129.768" fill="#FFFDEB"/>
<path d="M75.7123 124.237L74.4693 124.332L74.9455 131.031C74.9896 131.496 74.9108 131.964 74.7169 132.389C74.526 132.797 74.2218 133.141 73.8406 133.38C73.3957 133.632 72.9005 133.781 72.3907 133.818C71.881 133.855 71.3694 133.779 70.8927 133.594C70.4821 133.414 70.1318 133.12 69.8831 132.746C69.6246 132.355 69.4766 131.9 69.4545 131.431L68.9782 124.732L67.7305 124.823L68.2305 131.627C68.2678 132.287 68.4871 132.923 68.8639 133.466C69.2358 133.997 69.7512 134.412 70.3498 134.662C71.0254 134.943 71.7596 135.054 72.4881 134.986C73.2189 134.948 73.9297 134.734 74.5598 134.362C75.1125 134.023 75.5609 133.538 75.8551 132.961C76.147 132.37 76.2706 131.711 76.2123 131.055L75.7123 124.237Z" fill="#FFFDEB"/>
<path d="M85.5486 127.977C85.9583 127.622 86.2464 127.147 86.3725 126.619C86.494 126.073 86.4777 125.504 86.3249 124.966C86.1949 124.416 85.9316 123.907 85.5582 123.484C85.1873 123.082 84.7017 122.805 84.1675 122.688C83.4946 122.559 82.8005 122.594 82.1435 122.788L78.7812 123.665L81.372 133.633L82.5817 133.318L81.5673 129.426L83.7437 128.859L83.9913 128.782L87.1107 132.118L88.5156 131.755L85.1819 128.23C85.3066 128.147 85.426 128.056 85.5391 127.958M81.2529 128.315L80.2338 124.404L82.3578 123.851C82.7989 123.717 83.2649 123.686 83.7199 123.76C84.0661 123.825 84.3811 124.002 84.6152 124.265C84.849 124.554 85.0121 124.894 85.0914 125.257C85.1938 125.61 85.2102 125.982 85.1391 126.343C85.0596 126.678 84.8701 126.976 84.6009 127.191C84.2386 127.466 83.8211 127.659 83.377 127.758L81.2529 128.315Z" fill="#FFFDEB"/>
<path d="M99.8201 114.808L101.201 123.941L101.096 124.003L93.7099 118.462L92.4336 119.225L97.7151 128.068L98.7152 127.467L94.7053 120.749L94.791 120.697L101.563 125.766L102.53 125.185L101.277 116.818L101.368 116.766L105.378 123.484L106.378 122.889L101.096 114.045L99.8201 114.808Z" fill="#FFFDEB"/>
<path d="M110.497 118.071L108.173 115.456L111.64 112.363L110.902 111.539L107.434 114.631L105.12 112.03L108.83 108.723L108.092 107.899L103.453 112.035L110.301 119.725L115.002 115.537L114.269 114.712L110.497 118.071Z" fill="#FFFDEB"/>
<path d="M115.219 99.1796L119.92 107.132L119.844 107.232L110.924 104.854L110.023 106.041L118.224 112.263L118.934 111.334L112.7 106.608L112.757 106.527L120.934 108.685L121.615 107.789L117.324 100.499L117.386 100.418L123.62 105.145L124.325 104.216L116.119 97.9932L115.219 99.1796Z" fill="#FFFDEB"/>
<path d="M127.512 92.0233C127.084 91.8039 126.606 91.6989 126.126 91.7184C125.728 91.7425 125.342 91.8635 125.002 92.071C124.709 92.2459 124.465 92.4917 124.292 92.7857L124.207 92.7428C124.254 92.4429 124.254 92.1374 124.207 91.8375C124.158 91.5343 124.035 91.2479 123.849 91.0037C123.614 90.7076 123.31 90.4737 122.964 90.3224C122.533 90.1083 122.053 90.0098 121.573 90.0365C121.084 90.0716 120.617 90.2507 120.23 90.5511C119.757 90.9338 119.381 91.4238 119.135 91.9805L117.582 95.2299L126.873 99.6705L128.478 96.3115C128.793 95.7111 128.971 95.0492 129.002 94.3723C129.018 93.8655 128.877 93.3662 128.597 92.9429C128.315 92.5454 127.935 92.2285 127.493 92.0233M119.12 94.5772L120.135 92.4521C120.228 92.1996 120.371 91.9683 120.555 91.7719C120.739 91.5755 120.96 91.418 121.206 91.3086C121.407 91.2338 121.621 91.2015 121.835 91.2138C122.049 91.2261 122.258 91.2828 122.449 91.3801C122.756 91.5144 123.014 91.7409 123.187 92.0281C123.353 92.3078 123.44 92.6272 123.44 92.9524C123.438 93.3028 123.356 93.6481 123.202 93.9625L122.202 96.0542L119.12 94.5772ZM127.478 95.8302L126.412 98.0648L123.183 96.5211L124.273 94.2341C124.438 93.8581 124.695 93.5301 125.021 93.2812C125.299 93.0732 125.628 92.9432 125.973 92.9048C126.312 92.8699 126.654 92.931 126.959 93.0811C127.156 93.1715 127.332 93.3035 127.473 93.4679C127.614 93.6324 127.718 93.8255 127.778 94.034C127.893 94.644 127.78 95.2749 127.459 95.8064" fill="#FFFDEB"/>
<path d="M130.754 87.5447L127.392 86.5823L128.673 82.1131L127.606 81.8082L126.33 86.2773L122.987 85.3197L124.354 80.5408L123.287 80.2358L121.582 86.2106L131.474 89.0503L133.207 82.9945L132.145 82.6896L130.754 87.5447Z" fill="#FFFDEB"/>
<path d="M130.297 72.8985C130.12 72.3878 129.787 71.946 129.345 71.6359C128.88 71.3221 128.345 71.1289 127.787 71.0737C127.229 70.9963 126.66 71.0569 126.13 71.2499C125.619 71.4478 125.181 71.799 124.878 72.2553C124.512 72.8289 124.291 73.483 124.235 74.1611L123.82 77.6202L134.045 78.8447L134.193 77.6059L130.197 77.1295L130.469 74.8901C130.469 74.7996 130.469 74.7186 130.469 74.6328L134.731 72.9509L134.902 71.5215L130.411 73.3273C130.379 73.1815 130.336 73.0382 130.283 72.8985M125.044 76.5196L125.306 74.3422C125.341 73.8828 125.481 73.4377 125.716 73.0414C125.904 72.7429 126.185 72.5151 126.516 72.3935C126.868 72.2833 127.24 72.2488 127.607 72.2923C127.974 72.3358 128.328 72.4563 128.645 72.646C128.928 72.8414 129.138 73.1267 129.24 73.456C129.366 73.894 129.393 74.3544 129.321 74.8043L129.054 77.0008L125.044 76.5196Z" fill="#FFFDEB"/>
<path d="M130.666 61.149C130.353 61.3534 130.087 61.6213 129.885 61.9351C129.686 62.2315 129.526 62.5517 129.408 62.888C129.304 63.2216 129.218 63.5265 129.161 63.7981L128.927 64.8558C128.889 65.0464 128.832 65.2608 128.761 65.4943C128.688 65.7258 128.593 65.9493 128.475 66.1613C128.355 66.3705 128.193 66.5523 127.999 66.695C127.793 66.8383 127.549 66.9179 127.299 66.9237C126.983 66.9435 126.67 66.858 126.408 66.6807C126.128 66.4899 125.906 66.2263 125.765 65.9183C125.59 65.5469 125.496 65.1425 125.489 64.7319C125.445 64.1772 125.566 63.6219 125.837 63.1358C125.954 62.9252 126.119 62.7447 126.318 62.6083C126.517 62.472 126.745 62.3834 126.984 62.3496L126.927 61.1442C126.426 61.1764 125.947 61.3666 125.56 61.6874C125.155 62.0279 124.842 62.4655 124.651 62.9595C124.434 63.529 124.342 64.1381 124.379 64.7462C124.401 65.3585 124.552 65.9592 124.822 66.5091C125.064 67.003 125.432 67.4239 125.889 67.7289C126.342 68.0244 126.878 68.1649 127.418 68.1291C127.733 68.1259 128.044 68.0539 128.328 67.9181C128.613 67.7823 128.864 67.586 129.065 67.3429C129.515 66.7717 129.823 66.1024 129.966 65.3895L130.27 64.1078C130.346 63.7595 130.446 63.4172 130.57 63.0834C130.67 62.7912 130.833 62.5245 131.047 62.302C131.268 62.0936 131.561 61.9778 131.866 61.978C132.221 61.9533 132.573 62.0545 132.861 62.2639C133.166 62.4859 133.406 62.7853 133.556 63.131C133.738 63.5315 133.838 63.9638 133.852 64.4032C133.873 64.7904 133.829 65.1785 133.723 65.5515C133.627 65.8909 133.447 66.2007 133.199 66.452C132.942 66.7035 132.605 66.8583 132.247 66.8903L132.309 68.1767C132.84 68.12 133.345 67.9153 133.766 67.5859C134.196 67.2436 134.525 66.7907 134.718 66.2757C135.147 64.9864 135.067 63.5817 134.495 62.3496C134.241 61.8459 133.85 61.4245 133.366 61.1347C132.903 60.8661 132.371 60.7402 131.837 60.7726C131.411 60.7763 130.994 60.8984 130.632 61.1251" fill="#FFFDEB"/>
<path d="M87.8569 70.3447C88.4443 67.7793 88.1935 65.0931 87.1415 62.6809C86.0895 60.2687 84.2917 58.2578 82.0125 56.9438C79.7332 55.6298 77.0927 55.082 74.4791 55.381C71.8655 55.68 69.4168 56.8099 67.4928 58.6047C65.7428 56.9672 63.5526 55.8771 61.1916 55.4685C58.8306 55.0599 56.4016 55.3506 54.2035 56.3049C52.0054 57.2591 50.134 58.8353 48.8195 60.8396C47.505 62.8438 46.8047 65.1888 46.8047 67.586C46.8047 69.9832 47.505 72.3282 48.8195 74.3324C50.134 76.3367 52.0054 77.9129 54.2035 78.8671C56.4016 79.8214 58.8306 80.1121 61.1916 79.7035C63.5526 79.2949 65.7428 78.2048 67.4928 76.5673C69.0687 78.0381 71.0033 79.0686 73.1029 79.5554C75.2024 80.0422 77.3929 79.9681 79.4548 79.3407C81.5167 78.7133 83.3775 77.5545 84.8505 75.9806C86.3235 74.4066 87.357 72.4729 87.8473 70.3733M67.6833 69.0868C67.6373 68.8312 67.5415 68.5872 67.4013 68.3687C67.261 68.1501 67.0791 67.9614 66.866 67.8132C66.6528 67.6649 66.4126 67.5602 66.159 67.5048C65.9053 67.4495 65.6433 67.4447 65.3878 67.4907C65.1324 67.5367 64.8884 67.6326 64.67 67.7729C64.4515 67.9132 64.2629 68.0952 64.1147 68.3084C63.9666 68.5217 63.8619 68.762 63.8066 69.0158C63.7513 69.2695 63.7465 69.5316 63.7924 69.7872C64.025 71.0577 64.454 72.2843 65.064 73.4226C64.1009 74.4004 62.9114 75.1254 61.6012 75.5331C60.291 75.9409 58.9004 76.0189 57.5528 75.7602C56.2052 75.5014 54.9423 74.914 53.876 74.05C52.8096 73.186 51.9729 72.0721 51.44 70.8071C50.907 69.5421 50.6944 68.165 50.8208 66.7981C50.9473 65.4311 51.4089 64.1165 52.1648 62.9708C52.9208 61.8251 53.9476 60.8837 55.1543 60.2301C56.361 59.5766 57.7103 59.231 59.0824 59.2241C59.724 59.2225 60.3636 59.2976 60.9874 59.4481C62.466 59.7842 63.8244 60.5185 64.9157 61.5717C66.007 62.6249 66.7895 63.9567 67.1785 65.4229C67.3423 65.8937 67.6777 66.2852 68.1177 66.5191C68.5577 66.753 69.0697 66.812 69.5514 66.6843C70.033 66.5566 70.4486 66.2517 70.7151 65.8305C70.9816 65.4093 71.0792 64.9029 70.9884 64.4128C70.7425 63.4817 70.3876 62.5829 69.9312 61.7351C71.2359 60.3941 72.9531 59.5306 74.8072 59.2832C76.6613 59.0358 78.5447 59.4189 80.1551 60.371C81.7654 61.3231 83.0093 62.7889 83.687 64.5331C84.3647 66.2773 84.4369 68.1988 83.8921 69.989C83.3472 71.7793 82.2169 73.3344 80.6826 74.4048C79.1482 75.4752 77.2989 75.9987 75.4315 75.8913C73.564 75.784 71.7868 75.0519 70.3851 73.8128C68.9835 72.5736 68.0386 70.8991 67.7024 69.0583" fill="#FFFDEB"/>
<path d="M107.949 67.5574C107.945 64.2983 106.649 61.1738 104.346 58.8693C102.043 56.5648 98.9195 55.2685 95.6619 55.2647C92.9612 55.2563 90.3343 56.1463 88.1945 57.7947C87.9705 57.9441 87.7795 58.1378 87.6331 58.3638C87.4868 58.5898 87.3883 58.8435 87.3437 59.1091C87.2991 59.3746 87.3093 59.6465 87.3737 59.908C87.4381 60.1695 87.5553 60.415 87.7182 60.6295C87.8811 60.8439 88.0861 61.0227 88.3207 61.1548C88.5552 61.287 88.8143 61.3696 89.082 61.3978C89.3498 61.4259 89.6204 61.3989 89.8773 61.3184C90.1342 61.238 90.3718 61.1057 90.5757 60.9298C91.6276 60.1236 92.8564 59.5798 94.1603 59.3434C95.4641 59.1071 96.8055 59.185 98.0733 59.5708C99.341 59.9565 100.499 60.6389 101.45 61.5615C102.402 62.4841 103.12 63.6203 103.545 64.8759C103.97 66.1315 104.09 67.4704 103.895 68.7817C103.7 70.0929 103.195 71.3387 102.423 72.4159C101.65 73.4931 100.632 74.3705 99.4532 74.9756C98.2742 75.5807 96.968 75.896 95.6429 75.8954C94.4058 75.8112 93.2085 75.4233 92.1568 74.7662V74.0563C92.1568 73.5318 91.9486 73.0289 91.5779 72.6581C91.2073 72.2873 90.7046 72.079 90.1804 72.079C89.6562 72.079 89.1535 72.2873 88.7829 72.6581C88.4122 73.0289 88.204 73.5318 88.204 74.0563V87.2494C88.204 87.7738 88.4122 88.2768 88.7829 88.6476C89.1535 89.0184 89.6562 89.2267 90.1804 89.2267C90.7046 89.2267 91.2073 89.0184 91.5779 88.6476C91.9486 88.2768 92.1568 87.7738 92.1568 87.2494V79.1496C93.264 79.6037 94.4464 79.8462 95.6429 79.8643C98.9005 79.8605 102.024 78.5642 104.327 76.2597C106.63 73.9552 107.926 70.8307 107.93 67.5717" fill="#FFFDEB"/>
<path d="M47.2154 74.5518C47.058 74.3458 46.8615 74.1728 46.6371 74.0428C46.4128 73.9128 46.165 73.8283 45.908 73.7943C45.651 73.7602 45.3898 73.7772 45.1393 73.8442C44.8889 73.9112 44.6541 74.027 44.4484 74.185C44.2019 74.3711 43.946 74.5444 43.6817 74.7043L43.6293 74.7329C42.346 75.4937 40.8825 75.8967 39.3908 75.9002C38.2726 75.938 37.1583 75.7504 36.1141 75.3484C35.0699 74.9464 34.1173 74.3383 33.3129 73.5603C32.5085 72.7823 31.8689 71.8503 31.432 70.8199C30.9951 69.7894 30.77 68.6815 30.77 67.5622C30.77 66.4429 30.9951 65.335 31.432 64.3045C31.8689 63.2741 32.5085 62.3421 33.3129 61.5641C34.1173 60.7861 35.0699 60.178 36.1141 59.776C37.1583 59.374 38.2726 59.1863 39.3908 59.2241C40.8823 59.2239 42.3464 59.6255 43.6293 60.3867L43.6817 60.4153C43.9471 60.5752 44.2031 60.7502 44.4484 60.9394C44.8669 61.206 45.3704 61.3055 45.8588 61.2179C46.3471 61.1303 46.7847 60.8622 47.0846 60.4668C47.3845 60.0713 47.5248 59.5775 47.4775 59.0834C47.4303 58.5892 47.199 58.1309 46.8297 57.7995C44.7008 56.1578 42.0882 55.2681 39.4003 55.2695C36.1432 55.2721 33.0201 56.5673 30.7165 58.8711C28.413 61.1748 27.1171 64.2988 27.1133 67.5574C27.1158 70.8169 28.4111 73.9421 30.7149 76.2469C33.0186 78.5516 36.1424 79.8475 39.4003 79.8501C42.0947 79.8554 44.7145 78.9655 46.8487 77.3201C47.0547 77.1626 47.2276 76.966 47.3575 76.7415C47.4875 76.5171 47.5719 76.2692 47.6059 76.012C47.64 75.7549 47.623 75.4936 47.556 75.243C47.489 74.9925 47.3733 74.7576 47.2154 74.5518Z" fill="#FFFDEB"/>
</svg>
