<svg width="136" height="51" viewBox="0 0 136 51" fill="none" xmlns="http://www.w3.org/2000/svg">
<path d="M13.3218 38.252H4.19576L0.476562 27.1121L5.12356 13.1831L13.3218 38.252Z" fill="#fff9eb"/>
<path d="M31.3328 0.5L9.95341 16.3499L7.25 8.09541L17.1678 0.5H31.3328Z" fill="#fff9eb"/>
<path d="M8.67578 41.877H35.2541L32.6706 50.3083L20.8412 50.3324L8.67578 41.877Z" fill="#fff9eb"/>
<path d="M45.0736 22.1851L52.312 27.4657L48.6568 38.8066L37.3633 47.3022L39.2988 41.0169L39.3468 40.8722L45.0736 22.1851Z" fill="#fff9eb"/>
<path d="M51.3674 22.3138L29.4922 6.35134L36.8026 0.934082L47.8482 9.06801L51.3674 22.3138Z" fill="#fff9eb"/>
<path d="M68.8223 19L66.3555 11.8457H66.3027C66.3145 12.0059 66.3281 12.2246 66.3438 12.502C66.3594 12.7793 66.373 13.0762 66.3848 13.3926C66.3965 13.709 66.4023 14.0117 66.4023 14.3008V19H65.125V10.4336H67.0996L69.4727 17.2715H69.5078L71.9629 10.4336H73.9316V19H72.5898V14.2305C72.5898 13.9688 72.5938 13.6855 72.6016 13.3809C72.6133 13.0762 72.625 12.7871 72.6367 12.5137C72.6523 12.2402 72.6641 12.0215 72.6719 11.8574H72.625L70.0645 19H68.8223Z" fill="#D3D3D3"/>
<path d="M78.6309 12.3906C79.209 12.3906 79.7051 12.5098 80.1191 12.748C80.5332 12.9863 80.8516 13.3242 81.0742 13.7617C81.2969 14.1992 81.4082 14.7227 81.4082 15.332V16.0703H77.0781C77.0938 16.6992 77.2617 17.1836 77.582 17.5234C77.9062 17.8633 78.3594 18.0332 78.9414 18.0332C79.3555 18.0332 79.7266 17.9941 80.0547 17.916C80.3867 17.834 80.7285 17.7148 81.0801 17.5586V18.6777C80.7559 18.8301 80.4258 18.9414 80.0898 19.0117C79.7539 19.082 79.3516 19.1172 78.8828 19.1172C78.2461 19.1172 77.6855 18.9941 77.2012 18.748C76.7207 18.498 76.3438 18.127 76.0703 17.6348C75.8008 17.1426 75.666 16.5312 75.666 15.8008C75.666 15.0742 75.7891 14.457 76.0352 13.9492C76.2812 13.4414 76.627 13.0547 77.0723 12.7891C77.5176 12.5234 78.0371 12.3906 78.6309 12.3906ZM78.6309 13.4277C78.1973 13.4277 77.8457 13.5684 77.5762 13.8496C77.3105 14.1309 77.1543 14.543 77.1074 15.0859H80.0605C80.0566 14.7617 80.002 14.4746 79.8965 14.2246C79.7949 13.9746 79.6387 13.7793 79.4277 13.6387C79.2207 13.498 78.9551 13.4277 78.6309 13.4277Z" fill="#D3D3D3"/>
<path d="M90.291 12.3906C91.0176 12.3906 91.5645 12.5781 91.9316 12.9531C92.3027 13.3281 92.4883 13.9297 92.4883 14.7578V19H91.1113V15.0039C91.1113 14.5117 91.0156 14.1406 90.8242 13.8906C90.6328 13.6406 90.3418 13.5156 89.9512 13.5156C89.4043 13.5156 89.0098 13.6914 88.7676 14.043C88.5293 14.3906 88.4102 14.8965 88.4102 15.5605V19H87.0332V15.0039C87.0332 14.6758 86.9902 14.4023 86.9043 14.1836C86.8223 13.9609 86.6953 13.7949 86.5234 13.6855C86.3516 13.5723 86.1348 13.5156 85.873 13.5156C85.4941 13.5156 85.1914 13.6016 84.9648 13.7734C84.7422 13.9453 84.582 14.1992 84.4844 14.5352C84.3867 14.8672 84.3379 15.2754 84.3379 15.7598V19H82.9609V12.5137H84.0332L84.2266 13.3867H84.3027C84.4355 13.1602 84.5996 12.9746 84.7949 12.8301C84.9941 12.6816 85.2148 12.5723 85.457 12.502C85.6992 12.4277 85.9512 12.3906 86.2129 12.3906C86.6973 12.3906 87.1055 12.4766 87.4375 12.6484C87.7695 12.8164 88.0176 13.0742 88.1816 13.4219H88.2871C88.4902 13.0703 88.7734 12.8105 89.1367 12.6426C89.5 12.4746 89.8848 12.3906 90.291 12.3906Z" fill="#D3D3D3"/>
<path d="M95.7871 9.88281V12.0801C95.7871 12.334 95.7793 12.584 95.7637 12.8301C95.752 13.0723 95.7402 13.2617 95.7285 13.3984H95.7871C95.9629 13.1172 96.207 12.8809 96.5195 12.6895C96.8359 12.4941 97.2402 12.3965 97.7324 12.3965C98.502 12.3965 99.1211 12.6797 99.5898 13.2461C100.059 13.8086 100.293 14.6426 100.293 15.748C100.293 16.4824 100.186 17.0996 99.9707 17.5996C99.7559 18.0996 99.4531 18.4785 99.0625 18.7363C98.6758 18.9902 98.2207 19.1172 97.6973 19.1172C97.2051 19.1172 96.8066 19.0273 96.502 18.8477C96.2012 18.6641 95.9648 18.4512 95.793 18.209H95.6934L95.4414 19H94.4102V9.88281H95.7871ZM97.3691 13.5156C96.9785 13.5156 96.668 13.5938 96.4375 13.75C96.2109 13.9062 96.0469 14.1406 95.9453 14.4531C95.8438 14.7617 95.791 15.1543 95.7871 15.6309V15.7539C95.7871 16.4766 95.9004 17.0293 96.127 17.4121C96.3574 17.7949 96.7754 17.9863 97.3809 17.9863C97.8613 17.9863 98.2305 17.793 98.4883 17.4062C98.7461 17.0156 98.875 16.457 98.875 15.7305C98.875 14.9961 98.7461 14.4434 98.4883 14.0723C98.2344 13.7012 97.8613 13.5156 97.3691 13.5156Z" fill="#D3D3D3"/>
<path d="M104.471 12.3906C105.049 12.3906 105.545 12.5098 105.959 12.748C106.373 12.9863 106.691 13.3242 106.914 13.7617C107.137 14.1992 107.248 14.7227 107.248 15.332V16.0703H102.918C102.934 16.6992 103.102 17.1836 103.422 17.5234C103.746 17.8633 104.199 18.0332 104.781 18.0332C105.195 18.0332 105.566 17.9941 105.895 17.916C106.227 17.834 106.568 17.7148 106.92 17.5586V18.6777C106.596 18.8301 106.266 18.9414 105.93 19.0117C105.594 19.082 105.191 19.1172 104.723 19.1172C104.086 19.1172 103.525 18.9941 103.041 18.748C102.561 18.498 102.184 18.127 101.91 17.6348C101.641 17.1426 101.506 16.5312 101.506 15.8008C101.506 15.0742 101.629 14.457 101.875 13.9492C102.121 13.4414 102.467 13.0547 102.912 12.7891C103.357 12.5234 103.877 12.3906 104.471 12.3906ZM104.471 13.4277C104.037 13.4277 103.686 13.5684 103.416 13.8496C103.15 14.1309 102.994 14.543 102.947 15.0859H105.9C105.896 14.7617 105.842 14.4746 105.736 14.2246C105.635 13.9746 105.479 13.7793 105.268 13.6387C105.061 13.498 104.795 13.4277 104.471 13.4277Z" fill="#D3D3D3"/>
<path d="M112.088 12.3906C112.197 12.3906 112.316 12.3965 112.445 12.4082C112.574 12.4199 112.686 12.4355 112.779 12.4551L112.65 13.7441C112.568 13.7207 112.467 13.7031 112.346 13.6914C112.229 13.6797 112.123 13.6738 112.029 13.6738C111.783 13.6738 111.549 13.7148 111.326 13.7969C111.104 13.875 110.906 13.9961 110.734 14.1602C110.562 14.3203 110.428 14.5215 110.33 14.7637C110.232 15.0059 110.184 15.2871 110.184 15.6074V19H108.801V12.5137H109.879L110.066 13.6562H110.131C110.26 13.4258 110.42 13.2148 110.611 13.0234C110.803 12.832 111.021 12.6797 111.268 12.5664C111.518 12.4492 111.791 12.3906 112.088 12.3906Z" fill="#D3D3D3"/>
<path d="M122.84 15.7422C122.84 16.2812 122.77 16.7598 122.629 17.1777C122.488 17.5957 122.283 17.9492 122.014 18.2383C121.744 18.5234 121.42 18.7422 121.041 18.8945C120.662 19.043 120.234 19.1172 119.758 19.1172C119.312 19.1172 118.904 19.043 118.533 18.8945C118.162 18.7422 117.84 18.5234 117.566 18.2383C117.297 17.9492 117.088 17.5957 116.939 17.1777C116.791 16.7598 116.717 16.2812 116.717 15.7422C116.717 15.0273 116.84 14.4219 117.086 13.9258C117.336 13.4258 117.691 13.0449 118.152 12.7832C118.613 12.5215 119.162 12.3906 119.799 12.3906C120.396 12.3906 120.924 12.5215 121.381 12.7832C121.838 13.0449 122.195 13.4258 122.453 13.9258C122.711 14.4258 122.84 15.0312 122.84 15.7422ZM118.135 15.7422C118.135 16.2148 118.191 16.6191 118.305 16.9551C118.422 17.291 118.602 17.5488 118.844 17.7285C119.086 17.9043 119.398 17.9922 119.781 17.9922C120.164 17.9922 120.477 17.9043 120.719 17.7285C120.961 17.5488 121.139 17.291 121.252 16.9551C121.365 16.6191 121.422 16.2148 121.422 15.7422C121.422 15.2695 121.365 14.8691 121.252 14.541C121.139 14.209 120.961 13.957 120.719 13.7852C120.477 13.6094 120.162 13.5215 119.775 13.5215C119.205 13.5215 118.789 13.7129 118.527 14.0957C118.266 14.4785 118.135 15.0273 118.135 15.7422Z" fill="#D3D3D3"/>
<path d="M127.662 13.5625H126.086V19H124.709V13.5625H123.648V12.9004L124.709 12.4961V12.0449C124.709 11.4941 124.795 11.0566 124.967 10.7324C125.143 10.4082 125.393 10.1758 125.717 10.0352C126.045 9.89062 126.436 9.81836 126.889 9.81836C127.186 9.81836 127.457 9.84375 127.703 9.89453C127.949 9.94141 128.156 9.99609 128.324 10.0586L127.967 11.1016C127.834 11.0586 127.686 11.0195 127.521 10.9844C127.357 10.9453 127.182 10.9258 126.994 10.9258C126.682 10.9258 126.451 11.0234 126.303 11.2188C126.158 11.4141 126.086 11.6992 126.086 12.0742V12.5137H127.662V13.5625Z" fill="#D3D3D3"/>
<path d="M71.959 26.5098C71.2754 26.5098 70.6634 26.6335 70.123 26.8809C69.5892 27.1283 69.1367 27.4863 68.7656 27.9551C68.3945 28.4173 68.1113 28.9805 67.916 29.6445C67.7207 30.3021 67.623 31.0443 67.623 31.8711C67.623 32.9779 67.7793 33.9316 68.0918 34.7324C68.4043 35.5267 68.8796 36.1387 69.5176 36.5684C70.1556 36.9915 70.9629 37.2031 71.9395 37.2031C72.5449 37.2031 73.1341 37.1445 73.707 37.0273C74.2799 36.9102 74.8724 36.7507 75.4844 36.5488V38.541C74.9049 38.7689 74.319 38.9349 73.7266 39.0391C73.1341 39.1432 72.4505 39.1953 71.6758 39.1953C70.2174 39.1953 69.0065 38.8926 68.043 38.2871C67.0859 37.6816 66.3698 36.8288 65.8945 35.7285C65.4258 34.6283 65.1914 33.3392 65.1914 31.8613C65.1914 30.7806 65.3411 29.791 65.6406 28.8926C65.9401 27.9941 66.3763 27.2194 66.9492 26.5684C67.5221 25.9108 68.2285 25.4062 69.0684 25.0547C69.9147 24.6966 70.8815 24.5176 71.9688 24.5176C72.6849 24.5176 73.388 24.599 74.0781 24.7617C74.7747 24.918 75.4193 25.1426 76.0117 25.4355L75.1914 27.3691C74.6966 27.1348 74.179 26.9329 73.6387 26.7637C73.0983 26.5944 72.5384 26.5098 71.959 26.5098Z" fill="#D3D3D3"/>
<path d="M87.8867 33.5703C87.8867 34.4688 87.7695 35.2663 87.5352 35.9629C87.3008 36.6595 86.959 37.2487 86.5098 37.7305C86.0605 38.2057 85.5202 38.5703 84.8887 38.8242C84.2572 39.0716 83.5443 39.1953 82.75 39.1953C82.0078 39.1953 81.3275 39.0716 80.709 38.8242C80.0905 38.5703 79.5534 38.2057 79.0977 37.7305C78.6484 37.2487 78.3001 36.6595 78.0527 35.9629C77.8053 35.2663 77.6816 34.4688 77.6816 33.5703C77.6816 32.3789 77.8867 31.3698 78.2969 30.543C78.7135 29.7096 79.306 29.0749 80.0742 28.6387C80.8424 28.2025 81.7572 27.9844 82.8184 27.9844C83.8145 27.9844 84.6934 28.2025 85.4551 28.6387C86.2168 29.0749 86.8125 29.7096 87.2422 30.543C87.6719 31.3763 87.8867 32.3854 87.8867 33.5703ZM80.0449 33.5703C80.0449 34.3581 80.1393 35.0319 80.3281 35.5918C80.5234 36.1517 80.8229 36.5814 81.2266 36.8809C81.6302 37.1738 82.151 37.3203 82.7891 37.3203C83.4271 37.3203 83.9479 37.1738 84.3516 36.8809C84.7552 36.5814 85.0514 36.1517 85.2402 35.5918C85.429 35.0319 85.5234 34.3581 85.5234 33.5703C85.5234 32.7826 85.429 32.1152 85.2402 31.5684C85.0514 31.015 84.7552 30.5951 84.3516 30.3086C83.9479 30.0156 83.4238 29.8691 82.7793 29.8691C81.8288 29.8691 81.1354 30.1882 80.6992 30.8262C80.263 31.4642 80.0449 32.3789 80.0449 33.5703Z" fill="#D3D3D3"/>
<path d="M95.709 39H93.3555V26.7148H89.1758V24.7227H99.8789V26.7148H95.709V39Z" fill="#D3D3D3"/>
<path d="M106.139 27.9844C107.102 27.9844 107.929 28.1829 108.619 28.5801C109.309 28.9772 109.84 29.5404 110.211 30.2695C110.582 30.9987 110.768 31.8711 110.768 32.8867V34.1172H103.551C103.577 35.1654 103.857 35.9727 104.391 36.5391C104.931 37.1055 105.686 37.3887 106.656 37.3887C107.346 37.3887 107.965 37.3236 108.512 37.1934C109.065 37.0566 109.635 36.8581 110.221 36.5977V38.4629C109.68 38.7168 109.13 38.9023 108.57 39.0195C108.01 39.1367 107.34 39.1953 106.559 39.1953C105.497 39.1953 104.563 38.9902 103.756 38.5801C102.955 38.1634 102.327 37.5449 101.871 36.7246C101.422 35.9043 101.197 34.8854 101.197 33.668C101.197 32.457 101.402 31.4284 101.812 30.582C102.223 29.7357 102.799 29.0911 103.541 28.6484C104.283 28.2057 105.149 27.9844 106.139 27.9844ZM106.139 29.7129C105.416 29.7129 104.83 29.9473 104.381 30.416C103.938 30.8848 103.678 31.5716 103.6 32.4766H108.521C108.515 31.9362 108.424 31.4577 108.248 31.041C108.079 30.6243 107.818 30.2988 107.467 30.0645C107.122 29.8301 106.679 29.7129 106.139 29.7129Z" fill="#D3D3D3"/>
<path d="M117.711 39.1953C116.689 39.1953 115.803 38.9967 115.055 38.5996C114.306 38.2025 113.73 37.5938 113.326 36.7734C112.923 35.9531 112.721 34.9115 112.721 33.6484C112.721 32.3333 112.942 31.2591 113.385 30.4258C113.827 29.5924 114.439 28.9772 115.221 28.5801C116.008 28.1829 116.91 27.9844 117.926 27.9844C118.57 27.9844 119.153 28.0495 119.674 28.1797C120.201 28.3034 120.647 28.4564 121.012 28.6387L120.328 30.4746C119.931 30.3118 119.524 30.1751 119.107 30.0645C118.691 29.9538 118.29 29.8984 117.906 29.8984C117.275 29.8984 116.747 30.0384 116.324 30.3184C115.908 30.5983 115.595 31.015 115.387 31.5684C115.185 32.1217 115.084 32.8086 115.084 33.6289C115.084 34.4232 115.188 35.0938 115.396 35.6406C115.605 36.181 115.914 36.5911 116.324 36.8711C116.734 37.1445 117.239 37.2812 117.838 37.2812C118.43 37.2812 118.961 37.2096 119.43 37.0664C119.898 36.9232 120.341 36.7376 120.758 36.5098V38.502C120.348 38.7363 119.908 38.9089 119.439 39.0195C118.971 39.1367 118.395 39.1953 117.711 39.1953Z" fill="#D3D3D3"/>
<path d="M125.592 23.8047V27.623C125.592 28.0202 125.579 28.4076 125.553 28.7852C125.533 29.1628 125.51 29.4557 125.484 29.6641H125.611C125.839 29.2865 126.119 28.9772 126.451 28.7363C126.783 28.4889 127.154 28.3034 127.564 28.1797C127.981 28.056 128.424 27.9941 128.893 27.9941C129.719 27.9941 130.423 28.1341 131.002 28.4141C131.581 28.6875 132.024 29.1139 132.33 29.6934C132.643 30.2728 132.799 31.0247 132.799 31.9492V39H130.504V32.3789C130.504 31.5391 130.331 30.9108 129.986 30.4941C129.641 30.071 129.107 29.8594 128.385 29.8594C127.688 29.8594 127.135 30.0059 126.725 30.2988C126.321 30.5853 126.031 31.0117 125.855 31.5781C125.68 32.138 125.592 32.8216 125.592 33.6289V39H123.297V23.8047H125.592Z" fill="#D3D3D3"/>
</svg>
