<svg width="600" height="184" viewBox="0 0 600 184" fill="none" xmlns="http://www.w3.org/2000/svg">
<g clip-path="url(#clip0_1252_2)">
<path d="M394.998 1.19997C401.098 1.19997 401.698 1.59997 401.698 2.69997V29C405.398 25.7 410.198 23.9 415.198 24C428.198 24 436.598 34.3 436.598 51.5C436.598 61.6 433.798 69.1 428.998 74C424.498 78.5 416.998 80.6 408.398 80.6C401.298 80.6 392.898 78.7 388.898 76.4C387.798 75.7 387.698 75.1 387.698 73.7V2.69997C387.698 1.59997 387.898 1.19997 394.598 1.19997H394.998ZM401.698 67.8C403.898 68.5 406.298 68.9 408.598 68.8C412.798 68.8 416.498 67.6 418.498 65C420.498 62.4 421.998 57.8 421.998 51.6C421.998 45.4 420.598 41.6 418.598 39.2C416.698 37.1 413.898 36 411.098 36.2C408.198 36.2 404.698 37.1 403.198 38.8C402.098 40 401.698 41.7 401.698 44.4V67.8ZM448.998 -2.38927e-05C453.698 0.0999761 457.398 3.99997 457.298 8.69997C457.198 13.4 453.298 17.1 448.598 17C443.998 16.9 440.298 13.1 440.298 8.49998C440.398 3.69998 444.198 -0.100024 448.998 -2.38927e-05ZM449.598 25.2C455.698 25.2 456.298 25.6 456.298 26.7V78C456.298 79.1 455.698 79.5 449.598 79.5H449.098C442.398 79.5 442.198 79.1 442.198 78V26.7C442.198 25.6 442.398 25.2 449.098 25.2H449.598ZM470.698 1.19997C476.598 1.19997 477.298 1.49998 477.498 2.49998C478.098 5.49998 478.398 18.6 478.398 32.5V65.3C478.398 67.7 479.198 68.8 481.798 68.8H482.998C483.898 68.8 483.998 69.5 483.998 73.3V74.2C483.998 77.9 483.898 78.3 483.098 78.7C480.898 79.6 478.498 80 476.198 79.9C472.998 80.1 469.898 78.9 467.498 76.8C464.998 74.3 464.198 70.8 464.198 66V30.3C464.198 20.5 463.698 6.19997 463.398 2.39997C463.298 1.29997 463.398 1.09998 470.098 1.09998L470.698 1.19997ZM496.398 -2.38927e-05C501.098 0.0999761 504.798 3.99997 504.698 8.69997C504.598 13.4 500.698 17.1 495.998 17C491.398 16.9 487.698 13.1 487.698 8.49998C487.698 3.69998 491.598 -0.100024 496.398 -2.38927e-05C496.298 -2.38927e-05 496.298 -2.38927e-05 496.398 -2.38927e-05ZM496.998 25.2C502.998 25.2 503.698 25.6 503.698 26.7V78C503.698 79.1 503.098 79.5 496.998 79.5H496.498C489.798 79.5 489.598 79.1 489.598 78V26.7C489.598 25.6 489.798 25.2 496.498 25.2H496.998ZM524.998 135.9C528.898 130.4 534.998 127.3 543.198 127.3C549.498 127.3 554.598 129.2 557.998 132.7C561.398 136.2 562.998 141.7 562.998 150V181.7C562.998 182.4 562.498 182.8 560.098 182.8H559.298C556.798 182.8 556.298 182.4 556.298 181.7V154.7C556.298 145.7 555.898 141.3 552.998 137.9C550.698 135.2 546.598 134 541.598 134C535.898 134 531.898 135.8 528.798 139.1C526.998 141.2 525.998 143.9 525.698 146.6C525.398 149.6 525.398 155.3 525.398 161.6V181.8C525.398 182.5 524.698 182.9 522.498 182.9H521.698C519.198 182.9 518.698 182.5 518.698 181.8V143C518.698 138.8 518.698 134 518.498 129.4C518.498 128.7 519.298 128.5 521.298 128.5H521.998C524.098 128.5 524.798 128.7 524.798 129.4L524.998 135.9ZM581.898 133.5V166.6C581.898 171.6 582.098 174.3 583.698 176C585.398 177.6 587.098 178.1 589.998 178.1C592.698 178.1 595.298 177.7 597.898 176.9C598.798 176.6 598.798 176.9 599.398 178.8L599.598 179.5C600.098 181.5 599.898 181.8 599.398 182C595.898 183.3 592.298 184 588.598 184C585.098 184.2 581.598 183 578.898 180.8C576.098 178.1 575.298 174.3 575.298 167.5V133.6H567.998C567.498 133.6 567.398 133.2 567.398 131.2V130.9C567.398 128.9 567.498 128.4 568.098 128.4H575.198V113C575.198 112.5 575.298 112.4 578.198 112.4H578.898C581.598 112.4 581.898 112.6 581.898 113V128.4H596.398C596.998 128.4 597.098 128.9 597.098 130.9V131.2C597.098 133.2 596.998 133.6 596.398 133.6L581.898 133.5ZM250.298 1.19997C256.398 1.19997 256.998 1.59997 256.998 2.69997V65.8C256.998 68.1 257.898 68.7 259.998 68.7C261.198 68.7 261.398 69.2 261.398 72.9V74C261.398 77.6 261.198 78.5 260.498 78.7C258.098 79.5 255.598 80 253.098 79.9C248.598 79.9 245.498 77.8 244.098 74.7C240.298 78.5 235.098 80.6 229.698 80.5C216.198 80.5 207.898 70 207.898 53C207.898 34.7 217.098 23.9 230.598 23.9C235.098 23.8 239.498 25.5 242.898 28.5V2.49998C242.898 1.39998 243.098 0.999976 249.798 0.999976L250.298 1.19997ZM242.998 41C240.798 38.1 237.398 36.3 233.698 36.3C226.198 36.3 222.498 42.3 222.498 53.2C222.498 59.3 223.998 63.2 225.998 65.6C227.998 67.7 230.798 68.8 233.698 68.6C236.498 68.7 239.198 67.7 241.398 66C242.498 64.8 242.898 63.1 242.898 60.4V41H242.998ZM273.998 -2.38927e-05C278.698 0.0999761 282.398 3.99997 282.298 8.69997C282.198 13.4 278.298 17.1 273.598 17C268.998 16.9 265.298 13.1 265.298 8.49998C265.298 3.69998 269.198 -0.100024 273.998 -2.38927e-05ZM274.598 25.2C280.698 25.2 281.298 25.6 281.298 26.7V78C281.298 79.1 280.698 79.5 274.598 79.5H274.098C267.398 79.5 267.198 79.1 267.198 78V26.7C267.198 25.6 267.398 25.2 274.098 25.2H274.598ZM288.898 68C290.698 64.9 291.598 64 292.698 64.8C296.598 67.5 301.198 69.1 305.898 69.3C311.398 69.3 314.598 67.2 314.598 64.4C314.598 56.4 288.198 61.3 288.198 41.6C288.198 30.8 297.498 24.1 309.598 24.1C315.698 23.9 321.698 25.7 326.598 29.3C327.598 30 327.398 30.8 325.398 34.3L324.498 35.8C322.598 39 321.898 39.5 320.798 38.8C317.698 36.7 313.998 35.5 310.298 35.5C307.898 35.3 305.598 35.9 303.598 37.3C302.698 38 302.098 39.1 302.098 40.3C302.098 48 328.498 44 328.498 62.6C328.498 67.3 326.598 71.8 323.198 75.1C319.398 78.8 313.698 80.8 306.198 80.8C298.298 80.8 291.198 78.2 286.998 74.6C286.198 73.9 286.298 72.9 287.898 69.9L288.898 68.1M367.098 26.5C367.198 25.6 367.598 25.2 373.198 25.2H373.798C379.098 25.2 379.798 25.5 379.798 26.7C379.798 30.1 379.598 40.5 379.598 49V55.3C379.598 63.3 379.898 72.3 380.298 77.8C380.398 79.3 380.298 79.7 374.398 79.7H373.898C368.898 79.7 367.998 79.5 367.598 78.4C367.298 77.3 366.998 76.1 366.898 74.9C363.198 78.7 358.098 80.8 352.798 80.8C339.298 80.8 330.898 70.5 330.898 53.6C330.898 34.8 341.298 24.3 353.698 24.3C358.698 24.2 363.598 26.5 366.698 30.4L367.098 26.5ZM365.398 41.4C363.398 38.3 359.998 36.5 356.398 36.4C348.898 36.4 345.398 42.4 345.398 53C345.398 62.2 347.898 68.8 356.198 68.8C359.098 68.9 361.898 67.8 363.898 65.7C365.098 64 365.598 62 365.398 59.9V41.4ZM523.598 10.3C529.698 10.3 530.298 10.7 530.298 11.8V25.1H542.598C543.498 25.1 543.898 25.3 543.898 30.3V31C543.898 36 543.498 36.2 542.598 36.2H530.298V61.7C530.298 64.7 530.798 66.3 532.098 67.5C533.398 68.5 534.998 69.1 536.598 69C538.398 68.9 540.198 68.6 541.998 68C542.998 67.7 543.498 68.3 544.698 72.1L544.998 73.1C546.098 76.9 545.998 77.6 544.798 78.2C541.098 79.9 536.998 80.8 532.898 80.8C527.098 80.8 523.098 79.3 520.398 76.6C517.698 73.9 516.198 69.4 516.198 62.7V36.3H508.998C508.098 36.3 507.698 36.1 507.698 31.1V30.4C507.698 25.4 508.098 25.2 508.998 25.2H516.098V11.9C516.098 10.8 516.298 10.4 522.998 10.4L523.598 10.3ZM553.798 25.2C559.898 25.2 560.398 25.6 560.798 26.7L567.198 47C569.198 53.1 570.698 59.2 571.798 65.5C572.798 60.1 574.498 53.6 576.298 47.1L582.298 26.7C582.698 25.6 583.298 25.2 588.798 25.2H590.098C596.398 25.2 596.798 25.8 596.398 27.1L578.698 78.8C572.698 96.4 565.998 103.8 552.598 103.8C548.698 103.9 544.898 103 541.498 101.2C540.598 100.6 540.798 99.7 541.698 96.3L542.098 94.8C543.098 91.3 543.598 90.3 545.198 90.9C547.298 91.5 549.398 91.9 551.598 91.9C557.198 91.9 560.798 89.5 564.398 79.9L545.998 27C545.598 25.8 545.998 25.1 552.498 25.1H553.798M249.898 134.8L249.498 135.6C248.598 137.5 247.998 137.7 247.098 137.1C243.298 134.8 238.998 133.5 234.498 133.5C223.598 133.5 216.098 141.4 216.098 155.7C216.098 167.4 220.598 177.7 233.298 177.7C237.998 177.8 242.598 176.7 246.798 174.6C247.698 174.1 248.098 174.5 248.898 176.4L249.298 177.5C249.898 179.2 249.898 179.6 249.198 180C244.098 182.6 238.398 184 232.598 183.8C216.598 183.8 208.898 171.8 208.898 156.3C208.898 137.4 219.698 127.2 233.998 127.2C239.698 127.1 245.298 128.7 250.098 131.8C250.898 132.4 250.898 132.8 249.898 134.8ZM261.398 178.8C256.298 174.3 253.198 166.8 253.198 156.8C253.198 137.3 263.198 127.3 278.598 127.3C284.798 127.3 289.798 128.8 293.798 132.4C298.898 136.9 301.998 144.4 301.998 154.4C301.998 173.9 291.998 183.9 276.598 183.9C270.398 183.9 265.298 182.4 261.398 178.8ZM276.898 177.8C286.398 177.8 294.798 171.5 294.798 155.1C294.798 144.6 291.198 133.4 278.298 133.4C268.898 133.4 260.498 139.8 260.498 156.1C260.398 166.5 263.998 177.8 276.898 177.8ZM315.498 135.9C319.398 130.4 325.498 127.3 333.698 127.3C339.998 127.3 345.098 129.2 348.498 132.7C351.898 136.2 353.598 141.7 353.598 150V181.7C353.598 182.4 353.098 182.8 350.698 182.8H349.898C347.398 182.8 346.898 182.4 346.898 181.7V154.7C346.898 145.7 346.498 141.3 343.598 137.9C341.298 135.2 337.198 134 332.198 134C327.398 133.7 322.698 135.6 319.398 139.1C317.598 141.2 316.598 143.9 316.298 146.6C315.998 149.6 315.998 155.3 315.998 161.6V181.8C315.998 182.5 315.298 182.9 313.098 182.9H312.298C309.798 182.9 309.298 182.5 309.298 181.8V143C309.298 138.8 309.298 134 309.098 129.4C309.098 128.7 309.898 128.5 311.898 128.5H312.598C314.698 128.5 315.398 128.7 315.398 129.4L315.498 135.9ZM373.198 134.1V181.8C373.198 182.5 372.498 182.8 370.298 182.8H369.498C367.098 182.8 366.498 182.5 366.498 181.8V134.1H359.298C358.598 134.1 358.398 133.6 358.398 131.6V130.9C358.398 128.8 358.598 128.3 359.298 128.3H366.498V124.1C366.498 109.3 372.898 103.3 386.798 103.3C392.198 103.4 397.498 104.7 402.398 107C403.098 107.3 403.098 107.7 402.298 109.7L402.098 110.2C401.298 112.2 401.098 112.5 400.098 112.1C395.898 110 391.298 108.9 386.698 108.9C376.598 108.9 373.198 113.2 373.198 124.3V128.3H385.898C386.598 128.3 386.798 128.8 386.798 130.9V131.6C386.798 133.6 386.598 134.1 385.898 134.1H373.198ZM396.898 129.3C396.898 128.6 397.598 128.4 399.798 128.4H400.698C403.098 128.4 403.698 128.6 403.698 129.3V181.9C403.698 182.6 403.098 182.9 400.798 182.9H399.998C397.498 182.9 396.998 182.6 396.998 181.9L396.898 129.3ZM461.198 179.8V180.2C461.198 182.2 461.198 182.4 460.598 182.6C459.498 182.9 458.298 183 457.098 183C452.998 183 450.498 180.6 450.098 176.2C447.098 181.2 441.398 183.8 433.898 183.8C419.198 183.8 410.998 173.7 410.998 156.7C410.998 141.2 419.198 127.3 435.798 127.3C440.698 127.3 445.498 128.8 449.498 131.6V105.3C449.498 104.6 450.698 104.4 452.398 104.4H453.198C454.998 104.4 456.198 104.6 456.198 105.3V171C456.198 177 457.198 177.7 460.498 177.7C461.098 177.7 461.198 177.8 461.198 179.8ZM449.398 138.5C445.798 135.3 441.098 133.6 436.298 133.6C425.298 133.6 418.098 142.6 418.098 156.4C418.098 170.5 424.598 177.8 434.598 177.8C438.798 178 442.998 176.4 446.098 173.6C448.898 170.7 449.398 167.2 449.398 157.7V138.5ZM472.398 157.8C472.698 165.3 474.698 170.4 478.298 173.5C481.398 176.3 485.898 177.6 491.298 177.6C496.198 177.7 500.998 176.6 505.398 174.5C506.398 174 506.898 174.1 507.698 176.2L508.098 177.2C508.698 178.7 508.698 179.5 507.998 179.9C502.498 182.7 496.298 184 490.098 183.9C474.098 183.9 465.098 173.6 465.098 156.9C465.098 140.2 474.098 127.4 489.598 127.4C497.398 127.1 504.698 131.5 507.998 138.5C510.398 143.7 511.598 149.4 511.498 155.2C511.498 157.6 511.098 157.8 509.998 157.8H472.398ZM504.598 152.3C504.398 142.8 499.898 133.5 489.598 133.5C480.698 133.5 473.998 138.7 472.598 152.3H504.598Z" fill="#fff9eb"/>
<path d="M75.0992 0.400024H13.3992C6.39922 0.400024 0.699219 6.10004 0.699219 13.1V72.5C0.699219 79.5 6.39922 85.2 13.3992 85.2H75.0992C82.0992 85.2 87.7992 79.5 87.7992 72.5V13C87.7992 6.10003 82.0992 0.400024 75.0992 0.400024ZM13.8992 65.8L15.6992 48.8C16.0992 47.8 16.9992 47 17.9992 46.6L27.1992 43.8C23.6992 41.2 21.5992 37.1 21.6992 32.7C21.6992 25.5 26.8992 19.6 33.1992 19.6C39.4992 19.6 44.6992 25.4 44.6992 32.7C44.7992 37.1 42.6992 41.2 39.1992 43.8L48.3992 46.6C49.3992 47 50.2992 47.8 50.6992 48.8L52.4992 65.8H13.8992ZM54.7992 57.1C54.2992 52.2 53.6992 45.8 53.4992 45.6C53.0992 44.6 52.1992 43.8 51.1992 43.4L49.5992 42.9L55.9992 40.9C53.3992 39 51.8992 36 51.9992 32.7C51.9992 27.4 55.7992 23.1 60.4992 23.1C65.1992 23.1 68.9992 27.4 68.9992 32.7C69.0992 35.9 67.5992 38.9 64.9992 40.8L71.6992 42.9C72.4992 43.2 73.0992 43.8 73.3992 44.5L74.6992 57H54.7992V57.1Z" fill="#fff9eb"/>
<path d="M173.898 0.400024H111.698C104.598 0.400024 98.8984 6.10003 98.8984 13.2V73C98.8984 80 104.598 85.8 111.698 85.8H173.898C180.898 85.8 186.698 80.1 186.698 73V13.2C186.598 6.20003 180.898 0.500024 173.898 0.400024ZM127.598 61.5C126.798 62.3 125.398 62.3 124.598 61.5L110.398 47.3C109.598 46.5 109.598 45.1 110.398 44.3L117.498 37.2C118.298 36.4 119.698 36.4 120.498 37.2L126.098 42.8L144.298 24.4C145.098 23.6 146.498 23.6 147.298 24.4L154.398 31.5C155.198 32.3 155.198 33.7 154.398 34.5L127.598 61.5ZM175.398 43.6L161.298 57.7L157.198 61.8C156.398 62.6 154.998 62.6 154.198 61.8L144.998 52.6C144.198 51.8 144.198 50.4 144.998 49.6L149.098 45.5C149.898 44.7 151.298 44.7 152.098 45.5L155.598 49L168.098 36.5C168.898 35.7 170.298 35.7 171.098 36.5L175.198 40.6C176.098 41.4 176.098 42.7 175.398 43.6Z" fill="#fff9eb"/>
<path d="M173.502 97.1H111.802C104.802 97.1 99.1016 102.8 99.1016 109.8V169.2C99.1016 176.2 104.802 181.9 111.802 181.9H173.502C180.502 181.9 186.202 176.2 186.202 169.2V109.8C186.202 102.8 180.502 97.1 173.502 97.1ZM112.302 165.4L114.102 148.4C114.502 147.4 115.402 146.6 116.402 146.2L125.602 143.4C122.102 140.8 120.002 136.7 120.102 132.3C120.102 125.1 125.302 119.3 131.602 119.3C137.902 119.3 143.102 125.1 143.102 132.3C143.202 136.7 141.102 140.8 137.602 143.4L146.802 146.2C147.802 146.6 148.702 147.4 149.102 148.4L150.902 165.4H112.302ZM144.302 140.9C144.302 139.4 145.502 138.3 146.902 138.3C148.402 138.3 149.502 139.5 149.502 140.9C149.502 142.4 148.302 143.5 146.902 143.5C145.502 143.5 144.302 142.4 144.302 140.9ZM154.302 140.9C152.502 140.9 151.002 139.4 151.002 137.6C151.002 135.8 152.502 134.3 154.302 134.3C156.102 134.3 157.602 135.8 157.602 137.6C157.602 139.4 156.102 140.9 154.302 140.9ZM177.402 127.1C177.402 130.8 172.402 133.9 166.202 133.9C163.502 133.9 160.902 133.3 158.602 132.1C157.702 132.3 156.702 132.4 155.702 132.4C150.802 132.4 146.802 129.6 146.802 126.2V126C144.802 125.3 143.502 123.4 143.402 121.3C143.602 118.3 146.202 116 149.202 116.1H149.802C151.902 113 156.502 110.8 161.802 110.8C163.502 110.8 165.102 111 166.702 111.5C167.702 111.1 168.802 110.8 170.002 110.8C174.202 110.7 177.702 114 177.902 118.2C177.902 120.1 177.102 122 175.702 123.3C176.702 124.3 177.402 125.6 177.402 127.1Z" fill="#fff9eb"/>
<path d="M43.9 144.9C41.7 144.9 39.9 146.7 39.9 149C39.9 150.5 40.7 151.8 42 152.5L41.6 161H46.3L45.9 152.5C47.9 151.4 48.6 148.9 47.5 147C46.7 145.8 45.4 145 43.9 144.9ZM75.1 96.9H12.8C5.7 96.9 0 102.6 0 109.7V169.8C0 176.9 5.8 182.6 12.8 182.6H75C82.1 182.6 87.8 176.9 87.8 169.8V109.7C87.8 102.6 82.1 96.9 75.1 96.9ZM63.5 165.3C63.5 166.6 62.4 167.7 61.1 167.7H26.6C25.3 167.7 24.2 166.6 24.2 165.3V140.4C24.2 139.1 25.3 138 26.6 138H30.8L28.4 129.2C26.4 121.8 30.8 114.2 38.1 112.2C45.5 110.2 53 114.5 55.1 121.9L56.1 125.4L49.7 127.2L49.2 125.3L51.7 122.1L48.5 123C46.9 119.4 42.7 117.8 39 119.4C35.9 120.8 34.2 124.1 34.9 127.4L37.8 137.9H61.3C62.6 137.9 63.7 139 63.7 140.3L63.5 165.3Z" fill="#fff9eb"/>
</g>
<defs>
<clipPath id="clip0_1252_2">
<rect width="600" height="184" fill="white"/>
</clipPath>
</defs>
</svg>
