<svg width="226" height="24" viewBox="0 0 226 24" fill="none" xmlns="http://www.w3.org/2000/svg">
<path d="M6.49475 0.319392L2.73928 23.6806H0L3.75547 0.319392H6.49475Z" fill="#FFFDEB"/>
<path d="M29.925 0.319392L26.1695 23.6806H23.5186L14.152 5.3384H13.9311L10.9709 23.6806H8.23165L11.9871 0.319392H14.638L24.0488 18.7072H24.2697L27.2299 0.319392H29.925Z" fill="#FFFDEB"/>
<path d="M33.7716 2.8289L34.1692 0.319392H51.1351L50.7375 2.8289H43.6242L40.2663 23.6806H37.5271L40.8849 2.8289H33.7716Z" fill="#FFFDEB"/>
<path d="M51.3532 23.6806L55.1087 0.319392H69.2911L68.8051 3.35361H58.0358L56.887 10.4715H66.9163L66.4303 13.4943H56.401L55.2523 20.6464H66.1542L65.6682 23.6806H51.3532Z" fill="#FFFDEB"/>
<path d="M69.8406 23.6806L73.5961 0.319392H82.079C83.8169 0.319392 85.227 0.631179 86.3095 1.25475C87.3919 1.87833 88.1467 2.75285 88.5738 3.87833C89.0009 4.9962 89.0929 6.30038 88.8499 7.79087C88.6143 9.28137 88.0988 10.5779 87.3036 11.6806C86.5156 12.7757 85.4737 13.6236 84.1777 14.2243C82.889 14.8251 81.3758 15.1255 79.638 15.1255H73.5961L74.1705 11.6122H79.6711C80.6873 11.6122 81.5415 11.4677 82.2337 11.1787C82.9259 10.8821 83.4708 10.4525 83.8684 9.88974C84.2734 9.31939 84.5422 8.61977 84.6747 7.79087C84.7999 6.96198 84.752 6.25475 84.5311 5.6692C84.3176 5.07605 83.9089 4.62738 83.3051 4.32319C82.7086 4.01141 81.9023 3.85551 80.8861 3.85551H77.1307L73.9385 23.6806H69.8406ZM83.2278 13.0951L87.1268 23.6806H82.554L78.7544 13.0951H83.2278Z" fill="#FFFDEB"/>
<path d="M89.9269 23.6806L93.6823 0.319392H102.607C104.315 0.319392 105.722 0.631179 106.826 1.25475C107.938 1.87833 108.719 2.76426 109.168 3.91255C109.625 5.05323 109.731 6.39924 109.488 7.95057C109.238 9.5019 108.697 10.8327 107.865 11.943C107.04 13.0532 105.965 13.9087 104.639 14.5095C103.321 15.1027 101.793 15.3992 100.056 15.3992H94.08L94.7427 11.4297H99.9341C100.847 11.4297 101.628 11.3004 102.276 11.0418C102.924 10.7833 103.435 10.3954 103.811 9.87833C104.194 9.36122 104.444 8.71863 104.562 7.95057C104.687 7.1673 104.643 6.51331 104.43 5.98859C104.216 5.45627 103.829 5.05323 103.27 4.77947C102.71 4.4981 101.974 4.35742 101.061 4.35742H97.8354L94.7096 23.6806H89.9269ZM103.844 13.0494L107.765 23.6806H102.486L98.6859 13.0494H103.844Z" fill="#FFFDEB"/>
<path d="M133.441 12.365C133.028 14.8821 132.218 17.0076 131.011 18.7414C129.81 20.4677 128.349 21.7757 126.626 22.6654C124.91 23.5551 123.065 24 121.092 24C119.008 24 117.204 23.5209 115.679 22.5627C114.155 21.6046 113.047 20.2091 112.355 18.3764C111.67 16.5437 111.537 14.3194 111.957 11.7034C112.355 9.18631 113.154 7.05703 114.354 5.31559C115.562 3.57414 117.031 2.25475 118.761 1.35741C120.499 0.452471 122.362 0 124.35 0C126.419 0 128.212 0.48289 129.729 1.44867C131.254 2.41445 132.358 3.81749 133.043 5.65779C133.728 7.4981 133.86 9.73384 133.441 12.365ZM127.973 11.7034C128.201 10.2357 128.201 9 127.973 7.9962C127.752 6.9924 127.318 6.23574 126.67 5.72624C126.022 5.20913 125.179 4.95057 124.14 4.95057C122.992 4.95057 121.953 5.24335 121.025 5.8289C120.105 6.40684 119.335 7.25095 118.717 8.36122C118.098 9.46388 117.668 10.7985 117.425 12.365C117.174 13.8479 117.167 15.0837 117.403 16.0722C117.646 17.0608 118.098 17.8061 118.761 18.308C119.424 18.8023 120.267 19.0494 121.291 19.0494C122.432 19.0494 123.459 18.7643 124.372 18.1939C125.285 17.6236 126.047 16.7909 126.659 15.6958C127.277 14.6008 127.715 13.27 127.973 11.7034Z" fill="#FFFDEB"/>
<path d="M134.556 23.6806L138.312 0.319392H148.12C149.843 0.319392 151.253 0.558936 152.35 1.03802C153.455 1.51711 154.236 2.19392 154.692 3.06844C155.156 3.94297 155.292 4.97338 155.101 6.1597C154.954 7.01141 154.637 7.79088 154.151 8.4981C153.672 9.19772 153.065 9.79088 152.328 10.2776C151.599 10.7567 150.786 11.0875 149.887 11.27L149.843 11.4981C150.815 11.5285 151.662 11.7795 152.384 12.251C153.105 12.7148 153.635 13.3612 153.974 14.1901C154.313 15.0114 154.394 15.9696 154.217 17.0646C154.011 18.3422 153.507 19.4791 152.704 20.4753C151.901 21.4715 150.859 22.2548 149.578 22.8251C148.297 23.3954 146.839 23.6806 145.204 23.6806H134.556ZM141.537 18.616H144.409C145.425 18.616 146.224 18.4144 146.806 18.0114C147.395 17.6084 147.744 17.019 147.855 16.2433C147.943 15.6958 147.899 15.2319 147.722 14.8517C147.546 14.4715 147.247 14.1825 146.828 13.9848C146.408 13.7871 145.881 13.6882 145.248 13.6882H142.288L141.537 18.616ZM142.951 9.76426H145.469C145.999 9.76426 146.485 9.67681 146.927 9.5019C147.369 9.327 147.733 9.07224 148.021 8.73764C148.308 8.40304 148.488 8 148.562 7.52852C148.672 6.79848 148.503 6.24335 148.054 5.86312C147.612 5.48289 147.015 5.29278 146.264 5.29278H143.658L142.951 9.76426Z" fill="#FFFDEB"/>
<path d="M161.209 23.6806H154.582L165.804 0.319392H174.198L177.91 23.6806H171.282L169.073 6.75285H168.897L161.209 23.6806ZM161.474 14.4639H173.933L173.138 19.2091H160.679L161.474 14.4639Z" fill="#FFFDEB"/>
<path d="M203.417 0.319392L199.661 23.6806H194.536L188.35 11.4068H188.218L186.23 23.6806H180.088L183.844 0.319392H189.057L195.155 12.5475H195.331L197.275 0.319392H203.417Z" fill="#FFFDEB"/>
<path d="M219.775 8.03042C219.745 7.62738 219.664 7.27376 219.532 6.96958C219.399 6.6578 219.212 6.39544 218.969 6.18251C218.726 5.96198 218.424 5.79848 218.063 5.69201C217.709 5.57795 217.293 5.52091 216.815 5.52091C215.784 5.52091 214.845 5.77567 213.998 6.28517C213.151 6.79468 212.441 7.52852 211.866 8.48669C211.299 9.44487 210.909 10.6008 210.696 11.9544C210.475 13.3232 210.456 14.4943 210.64 15.4677C210.824 16.4411 211.222 17.1863 211.833 17.7034C212.452 18.2205 213.288 18.4791 214.341 18.4791C215.283 18.4791 216.097 18.3384 216.782 18.057C217.466 17.7757 218.015 17.3764 218.427 16.8593C218.84 16.3422 219.097 15.7338 219.201 15.0342L220.261 15.1483H215.092L215.799 10.6312H225.828L225.32 13.8707C224.981 16 224.252 17.8213 223.133 19.3346C222.021 20.8403 220.636 21.9962 218.98 22.8023C217.323 23.6008 215.504 24 213.523 24C211.329 24 209.477 23.5171 207.967 22.5513C206.458 21.5856 205.379 20.2091 204.731 18.4221C204.09 16.635 203.965 14.5095 204.355 12.0456C204.665 10.1141 205.224 8.40304 206.034 6.91255C206.852 5.42205 207.849 4.1635 209.028 3.13688C210.206 2.10266 211.506 1.32319 212.927 0.798479C214.348 0.26616 215.821 0 217.345 0C218.678 0 219.889 0.197719 220.979 0.593157C222.069 0.980989 223 1.53612 223.773 2.25856C224.547 2.97338 225.125 3.82129 225.508 4.80228C225.898 5.78327 226.056 6.85932 225.982 8.03042H219.775Z" fill="#FFFDEB"/>
</svg>
